<?xml version="1.0" encoding="UTF-8"?>
<svg width="62px" height="40px" viewBox="0 0 62 40" version="1.1" xmlns="http://www.w3.org/2000/svg" xmlns:xlink="http://www.w3.org/1999/xlink">
    <!-- Generator: Sketch 54.1 (76490) - https://sketchapp.com -->
    <title>Icon_Switch_Off</title>
    <desc>Created with Sketch.</desc>
    <g id="Icon_Switch_Off" stroke="none" stroke-width="1" fill="none" fill-rule="evenodd">
        <g id="OFF">
            <path d="M42.0256757,38 L20.9743243,38 C10.4945088,38 2,29.7178388 2,19.5 C2,9.28216123 10.4945088,1 20.9743243,1 L42.0256757,1 C52.5054912,1 61,9.28216123 61,19.5 C61,29.7178388 52.5054912,38 42.0256757,38" id="Fill-1" fill="#FFFFFF"></path>
            <path d="M20.3716505,2.20998116 C10.463979,2.25585663 2.41610441,10.2198149 2.41610441,20 C2.41610441,29.7801851 10.463979,37.7441434 20.3716505,37.7900188 C30.2793221,37.7441434 38.3271967,29.7801851 38.3271967,20 C38.3271967,10.2198149 30.2793221,2.25585663 20.3716505,2.20998116 Z M29.5481108,37.790218 L41.7173921,37.790218 C51.6644755,37.790218 59.7589929,29.8084856 59.7589929,20 C59.7589929,10.1915144 51.6644755,2.20978197 41.7173921,2.20978197 L29.5481108,2.20978197 C36.0867773,5.53329333 40.5682037,12.2601686 40.5682037,20 C40.5682037,27.7398314 36.0867773,34.4667067 29.5481083,37.7902193 Z M20.3716505,39.9998229 C20.3429795,39.9999409 20.3142945,40 20.2855959,40 C9.10147665,40 0,31.0282852 0,20 C0,8.97171479 9.10147665,0 20.2855959,0 C20.3142945,0 20.3429795,5.90738395e-05 20.3716505,0.000177104682 C20.4003216,5.90738395e-05 20.4290065,0 20.4577052,0 L41.7173921,0 C52.9015114,0 62,8.97171479 62,20 C62,31.0282852 52.9015114,40 41.7173921,40 L20.4577052,40 C20.4290065,40 20.4003216,39.9999409 20.3716505,39.9998229 Z M21.4011374,19.3759576 L26.8048168,24.7043448 C26.8627962,24.7615163 26.8917859,24.8386979 26.8917859,24.938748 C26.8917859,25.0387982 26.8627962,25.1188384 26.8048168,25.1760099 L25.8046723,26.1650775 C25.7437939,26.2251076 25.6655217,26.2508348 25.5640578,26.2508348 C25.4596949,26.2508348 25.3814227,26.2251076 25.3234433,26.1650775 L19.9197639,20.8366903 L14.5160845,26.1650775 C14.4581051,26.2251076 14.376934,26.2508348 14.2754701,26.2508348 C14.1769051,26.2508348 14.092835,26.2251076 14.0377545,26.1650775 L13.0347111,25.1760099 C12.9767317,25.1188384 12.947742,25.0387982 12.947742,24.938748 C12.947742,24.8386979 12.9767317,24.7615163 13.0347111,24.7043448 L18.4383904,19.3759576 L13.0347111,14.0475704 C12.9767317,13.9903989 12.947742,13.9132173 12.947742,13.8131671 C12.947742,13.7131169 12.9767317,13.6330768 13.0347111,13.5759052 L14.0377545,12.5868376 C14.092835,12.5296661 14.1769051,12.5010803 14.2754701,12.5010803 C14.376934,12.5010803 14.4581051,12.5296661 14.5160845,12.5868376 L19.9197639,17.9152248 L25.3234433,12.5868376 C25.3814227,12.5296661 25.4596949,12.5010803 25.5640578,12.5010803 C25.6655217,12.5010803 25.7437939,12.5296661 25.8046723,12.5868376 L26.8048168,13.5759052 C26.8627962,13.6330768 26.8917859,13.7131169 26.8917859,13.8131671 C26.8917859,13.9132173 26.8627962,13.9903989 26.8048168,14.0475704 L25.8887424,14.9508807 L21.4011374,19.3759576 Z" id="Combined-Shape" fill="#6F777C"></path>
        </g>
    </g>
</svg>