<?xml version="1.0" encoding="UTF-8"?>
<svg width="62px" height="40px" viewBox="0 0 62 40" version="1.1" xmlns="http://www.w3.org/2000/svg" xmlns:xlink="http://www.w3.org/1999/xlink">
    <!-- Generator: Sketch 54.1 (76490) - https://sketchapp.com -->
    <title>Icon_Switch_On</title>
    <desc>Created with Sketch.</desc>
    <g id="Icon_Switch_On" stroke="none" stroke-width="1" fill="none" fill-rule="evenodd">
        <g id="ON" transform="translate(31.000000, 20.000000) scale(-1, 1) translate(-31.000000, -20.000000) ">
            <path d="M42.0256757,38 L20.9743243,38 C10.4945088,38 2,29.7178388 2,19.5 C2,9.28216123 10.4945088,1 20.9743243,1 L42.0256757,1 C52.5054912,1 61,9.28216123 61,19.5 C61,29.7178388 52.5054912,38 42.0256757,38" id="Fill-1" fill="#7ED321"></path>
            <path d="M20.4577052,2.20978197 C10.5106219,2.20978197 2.41610441,10.1915144 2.41610441,20 C2.41610441,29.8084856 10.5106219,37.790218 20.4577052,37.790218 L41.7173921,37.790218 C51.6644755,37.790218 59.7589929,29.8084856 59.7589929,20 C59.7589929,10.1915144 51.6644755,2.20978197 41.7173921,2.20978197 L20.4577052,2.20978197 Z M41.7173921,40 L20.4577052,40 C9.273586,40 0.175097351,31.0282852 0.175097351,20 C0.175097351,8.97171479 9.273586,0 20.4577052,0 L41.7173921,0 C52.9015114,0 62,8.97171479 62,20 C62,31.0282852 52.9015114,40 41.7173921,40 L41.7173921,40 Z" id="Fill-3" fill="#6F777C"></path>
            <circle id="Oval" fill="#FFFFFF" cx="20" cy="20.5" r="19.5"></circle>
            <path d="M20.2855959,2.20978197 C10.3355245,2.20978197 2.24100706,10.1915144 2.24100706,20 C2.24100706,29.8084856 10.3355245,37.790218 20.2855959,37.790218 C30.2326792,37.790218 38.3271967,29.8084856 38.3271967,20 C38.3271967,10.1915144 30.2326792,2.20978197 20.2855959,2.20978197 M20.2855959,40 C9.10147665,40 0,31.0282852 0,20 C0,8.97171479 9.10147665,0 20.2855959,0 C31.4697151,0 40.5682037,8.97171479 40.5682037,20 C40.5682037,31.0282852 31.4697151,40 20.2855959,40" id="Fill-8" fill="#6F777C"></path>
            <path d="M8.09652174,20.0947826 C8.03130435,20.0321739 8,19.9408696 8,19.826087 C8,19.713913 8.03130435,19.6226087 8.09652174,19.5573913 L9.22347826,18.4330435 C9.28608696,18.3678261 9.37478261,18.333913 9.48956522,18.333913 C9.60434783,18.333913 9.69304348,18.3678261 9.76086957,18.4330435 L15.826087,24.4956522 L28.2252174,12.0991304 C28.2878261,12.033913 28.3765217,12 28.4913043,12 C28.606087,12 28.6947826,12.033913 28.7626087,12.0991304 L29.8869565,13.2234783 C29.9521739,13.2913043 29.986087,13.38 29.986087,13.4947826 C29.986087,13.6069565 29.9521739,13.6982609 29.8869565,13.7608696 L16.0921739,27.5556522 C16.0269565,27.6208696 15.9382609,27.6521739 15.8234783,27.6521739 C15.7113043,27.6521739 15.62,27.6208696 15.5547826,27.5556522 L8.09652174,20.0947826 Z" id="Fill-10" fill="#6F777C" transform="translate(18.993043, 19.826087) scale(-1, 1) translate(-18.993043, -19.826087) "></path>
        </g>
    </g>
</svg>